<svg xmlns="http://www.w3.org/2000/svg" width="30" height="24" fill="none"><path fill="#DC5900" fill-rule="evenodd" d="M8.156.223c-.538.115-1.233.32-1.546.454l-.57.245.732.029.733.029-.613.142c-1.524.353-3.148 1.56-4.578 3.4C1.442 5.644-.087 8.017.004 8.106c.025.025.548-.14 1.16-.367 3.688-1.364 7.484-1.464 8.624-.226.348.377.312.382-.575.074-.815-.282-2.65-.313-3.669-.061-.774.192-.829.461-.093.461 1.234 0 3.13 1.003 3.624 1.918.436.806.38 1.47-.365 4.37-.801 3.116-.95 4.639-.576 5.901.355 1.201 1.355 2.27 2.891 3.09l1.199.64 6.55.047 6.55.047v-.395c0-.551-.431-.941-.87-.788-.353.123-1.384.126-1.508.005-.036-.036.045-.374.18-.75.351-.98.317-2.44-.075-3.196-.364-.701-1.23-1.458-2.196-1.92-.361-.172-.563-.317-.448-.321.32-.013 1.308.426 1.776.787.545.422 1.533.422 2.42 0 .375-.179 1.168-.827 1.761-1.44 1.184-1.223 1.586-1.36 2.128-.728.264.308.439.37.855.302.596-.095.81-.502.534-1.01-.282-.517-.84-.639-2.93-.639-1.863 0-2.443-.142-1.834-.45.159-.08.718-.188 1.242-.238 1.205-.117 2.22-.721 2.22-1.322 0-.634-.37-1.19-1.507-2.262-.793-.748-1.238-1.038-1.81-1.18-.516-.127-.864-.334-1.091-.648-.223-.307-.575-.52-1.058-.64-.398-.098-.763-.242-.811-.32-.049-.076-.203-.14-.343-.14-.26 0-.251.477.046 2.517.096.657.072.702-.854 1.61-.524.513-1.767 1.485-2.763 2.16-2.166 1.47-2.85 2.13-3.475 3.358-.66 1.294-.87 2.473-.78 4.342l.079 1.59-.535-.574c-.951-1.02-1.101-2.292-.544-4.623.326-1.367.487-1.713 3.504-7.527 1.003-1.933 1.154-4.592.348-6.14-1.14-2.19-3.55-3.448-6.545-3.42-.72.008-1.747.108-2.284.223Z" clip-rule="evenodd"/><mask id="a" width="8.07" height="8.595" x="22.67" y="14.708" fill="#000" maskUnits="userSpaceOnUse"><path fill="#fff" d="M22.67 14.708h8.07v8.595h-8.07z"/><path fill-rule="evenodd" d="M27.76 16.75c.007.013-.087.049-.21.079-.121.03-.359.122-.527.206l-.306.152-.104-.091c-.092-.082-.112-.09-.186-.072-.165.038-.644.426-.858.695-.09.113-.119.13-.178.11-.047-.018-.094-.005-.142.04-.102.093-.296.402-.423.674-.06.128-.121.229-.136.224-.014-.005-.102.197-.195.45-.157.427-.168.473-.153.64.077.875.707 1.65 1.6 1.97.897.323 1.918.112 2.536-.523.102-.105.135-.172.28-.565.137-.369.158-.451.127-.478-.029-.025-.02-.081.032-.225.076-.205.146-.606.138-.785-.004-.083-.024-.116-.082-.136-.047-.017-.075-.05-.073-.085.02-.395-.098-1.087-.205-1.205-.034-.037-.083-.05-.185-.046l-.14.004-.09-.225a3.575 3.575 0 0 0-.25-.474l-.184-.292c-.028-.045-.105-.084-.085-.043Zm.184.757c.072.15.127.281.123.293-.005.012-.07.035-.144.05a3.423 3.423 0 0 0-.337.097c-.11.037-.217.062-.238.054a.514.514 0 0 1-.118-.159 2.8 2.8 0 0 0-.188-.285.566.566 0 0 1-.1-.159c.016-.036.242-.147.489-.239l.25-.093.067.085c.036.046.124.207.196.356Zm-1.214.11c.107.13.216.28.241.333l.046.097-.266.128a3.24 3.24 0 0 0-.395.223.953.953 0 0 1-.137.091 5.35 5.35 0 0 1-.203-.2 3.14 3.14 0 0 0-.254-.238c-.05-.034-.051-.053-.009-.115.162-.24.626-.612.721-.578.034.012.15.128.256.258Zm1.84.75c.059.3.076.619.036.664-.014.016-.085.026-.158.022a2.19 2.19 0 0 0-.332.019c-.11.015-.205.025-.21.023a.95.95 0 0 1-.055-.171 3.327 3.327 0 0 0-.16-.42l-.115-.253.104-.045c.153-.066.7-.164.773-.138.047.017.076.092.117.298Zm-1.134.271c.083.18.158.375.167.432.017.104.017.104-.166.204-.159.087-.188.092-.222.044a5.92 5.92 0 0 0-.138-.177l-.099-.122-.22.045-.221.044-.08-.188c-.074-.176-.075-.192-.012-.248.094-.086.75-.395.8-.377.022.009.109.163.191.343Zm-1.804-.33c.187.14.434.448.537.668l.108.232-.166.096c-.09.052-.202.123-.246.156-.061.046-.092.05-.121.019a6.33 6.33 0 0 0-.639-.483c-.067-.038-.102-.08-.1-.12.004-.103.29-.655.375-.727.01-.009.054.01.097.043l.155.117Zm3.118 1.255a2.75 2.75 0 0 1-.168.573c-.028.068-.048.074-.164.053-.15-.027-.67-.05-.779-.035-.06.008-.075-.007-.102-.109a2.174 2.174 0 0 0-.094-.263l-.063-.144.137-.084c.183-.11.372-.17.647-.203.26-.031.586-.023.602.014a.878.878 0 0 1-.016.198Zm-1.709.028c.147.256.256.557.21.578-.011.005-.19.043-.395.084l-.375.075-.093-.13a6.419 6.419 0 0 0-.246-.31l-.154-.181.155-.098c.143-.09.684-.307.728-.29.01.003.087.126.17.272Zm-1.706-.094c.356.283.86.834.832.91-.007.02-.05.044-.096.055-.234.057-.777.366-.89.506-.035.043-.234-.207-.356-.446a1.887 1.887 0 0 1-.18-1.185c.048-.27.055-.273.31-.11.118.077.29.198.38.27Zm3.232 1.227a1.99 1.99 0 0 1-1.057.863c-.25.082-.422.111-.42.07.003-.127-.134-.53-.264-.78l-.158-.3.23-.05a4.194 4.194 0 0 1 1.38-.074c.195.019.363.05.373.067.01.02-.027.108-.084.204Zm-2.047.169c.076.125.15.263.166.306.065.175.127.458.106.485-.077.096-.858-.117-1.187-.324-.116-.072-.213-.147-.217-.165-.01-.044.19-.204.39-.315.138-.076.56-.232.594-.22.006.002.073.107.148.233Z" clip-rule="evenodd"/></mask><path fill="#833F0E" fill-rule="evenodd" d="M27.76 16.75c.007.013-.087.049-.21.079-.121.03-.359.122-.527.206l-.306.152-.104-.091c-.092-.082-.112-.09-.186-.072-.165.038-.644.426-.858.695-.09.113-.119.13-.178.11-.047-.018-.094-.005-.142.04-.102.093-.296.402-.423.674-.06.128-.121.229-.136.224-.014-.005-.102.197-.195.45-.157.427-.168.473-.153.64.077.875.707 1.65 1.6 1.97.897.323 1.918.112 2.536-.523.102-.105.135-.172.28-.565.137-.369.158-.451.127-.478-.029-.025-.02-.081.032-.225.076-.205.146-.606.138-.785-.004-.083-.024-.116-.082-.136-.047-.017-.075-.05-.073-.085.02-.395-.098-1.087-.205-1.205-.034-.037-.083-.05-.185-.046l-.14.004-.09-.225a3.575 3.575 0 0 0-.25-.474l-.184-.292c-.028-.045-.105-.084-.085-.043Zm.184.757c.072.15.127.281.123.293-.005.012-.07.035-.144.05a3.423 3.423 0 0 0-.337.097c-.11.037-.217.062-.238.054a.514.514 0 0 1-.118-.159 2.8 2.8 0 0 0-.188-.285.566.566 0 0 1-.1-.159c.016-.036.242-.147.489-.239l.25-.093.067.085c.036.046.124.207.196.356Zm-1.214.11c.107.13.216.28.241.333l.046.097-.266.128a3.24 3.24 0 0 0-.395.223.953.953 0 0 1-.137.091 5.35 5.35 0 0 1-.203-.2 3.14 3.14 0 0 0-.254-.238c-.05-.034-.051-.053-.009-.115.162-.24.626-.612.721-.578.034.012.15.128.256.258Zm1.84.75c.059.3.076.619.036.664-.014.016-.085.026-.158.022a2.19 2.19 0 0 0-.332.019c-.11.015-.205.025-.21.023a.95.95 0 0 1-.055-.171 3.327 3.327 0 0 0-.16-.42l-.115-.253.104-.045c.153-.066.7-.164.773-.138.047.017.076.092.117.298Zm-1.134.271c.083.18.158.375.167.432.017.104.017.104-.166.204-.159.087-.188.092-.222.044a5.92 5.92 0 0 0-.138-.177l-.099-.122-.22.045-.221.044-.08-.188c-.074-.176-.075-.192-.012-.248.094-.086.75-.395.8-.377.022.009.109.163.191.343Zm-1.804-.33c.187.14.434.448.537.668l.108.232-.166.096c-.09.052-.202.123-.246.156-.061.046-.092.05-.121.019a6.33 6.33 0 0 0-.639-.483c-.067-.038-.102-.08-.1-.12.004-.103.29-.655.375-.727.01-.009.054.01.097.043l.155.117Zm3.118 1.255a2.75 2.75 0 0 1-.168.573c-.028.068-.048.074-.164.053-.15-.027-.67-.05-.779-.035-.06.008-.075-.007-.102-.109a2.174 2.174 0 0 0-.094-.263l-.063-.144.137-.084c.183-.11.372-.17.647-.203.26-.031.586-.023.602.014a.878.878 0 0 1-.016.198Zm-1.709.028c.147.256.256.557.21.578-.011.005-.19.043-.395.084l-.375.075-.093-.13a6.419 6.419 0 0 0-.246-.31l-.154-.181.155-.098c.143-.09.684-.307.728-.29.01.003.087.126.17.272Zm-1.706-.094c.356.283.86.834.832.91-.007.02-.05.044-.096.055-.234.057-.777.366-.89.506-.035.043-.234-.207-.356-.446a1.887 1.887 0 0 1-.18-1.185c.048-.27.055-.273.31-.11.118.077.29.198.38.27Zm3.232 1.227a1.99 1.99 0 0 1-1.057.863c-.25.082-.422.111-.42.07.003-.127-.134-.53-.264-.78l-.158-.3.23-.05a4.194 4.194 0 0 1 1.38-.074c.195.019.363.05.373.067.01.02-.027.108-.084.204Zm-2.047.169c.076.125.15.263.166.306.065.175.127.458.106.485-.077.096-.858-.117-1.187-.324-.116-.072-.213-.147-.217-.165-.01-.044.19-.204.39-.315.138-.076.56-.232.594-.22.006.002.073.107.148.233Z" clip-rule="evenodd"/><path stroke="#833F0E" stroke-width=".328" d="M27.76 16.75c.007.013-.087.049-.21.079-.121.03-.359.122-.527.206l-.306.152-.104-.091c-.092-.082-.112-.09-.186-.072-.165.038-.644.426-.858.695-.09.113-.119.13-.178.11-.047-.018-.094-.005-.142.04-.102.093-.296.402-.423.674-.06.128-.121.229-.136.224-.014-.005-.102.197-.195.45-.157.427-.168.473-.153.64.077.875.707 1.65 1.6 1.97.897.323 1.918.112 2.536-.523.102-.105.135-.172.28-.565.137-.369.158-.451.127-.478-.029-.025-.02-.081.032-.225.076-.205.146-.606.138-.785-.004-.083-.024-.116-.082-.136-.047-.017-.075-.05-.073-.085.02-.395-.098-1.087-.205-1.205-.034-.037-.083-.05-.185-.046l-.14.004-.09-.225a3.575 3.575 0 0 0-.25-.474l-.184-.292c-.028-.045-.105-.084-.085-.043Zm.184.757c.072.15.127.281.123.293-.005.012-.07.035-.144.05a3.423 3.423 0 0 0-.337.097c-.11.037-.217.062-.238.054a.514.514 0 0 1-.118-.159 2.8 2.8 0 0 0-.188-.285.566.566 0 0 1-.1-.159c.016-.036.242-.147.489-.239l.25-.093.067.085c.036.046.124.207.196.356Zm-1.214.11c.107.13.216.28.241.333l.046.097-.266.128a3.24 3.24 0 0 0-.395.223.953.953 0 0 1-.137.091 5.35 5.35 0 0 1-.203-.2 3.14 3.14 0 0 0-.254-.238c-.05-.034-.051-.053-.009-.115.162-.24.626-.612.721-.578.034.012.15.128.256.258Zm1.84.75c.059.3.076.619.036.664-.014.016-.085.026-.158.022a2.19 2.19 0 0 0-.332.019c-.11.015-.205.025-.21.023a.95.95 0 0 1-.055-.171 3.327 3.327 0 0 0-.16-.42l-.115-.253.104-.045c.153-.066.7-.164.773-.138.047.017.076.092.117.298Zm-1.134.271c.083.18.158.375.167.432.017.104.017.104-.166.204-.159.087-.188.092-.222.044a5.92 5.92 0 0 0-.138-.177l-.099-.122-.22.045-.221.044-.08-.188c-.074-.176-.075-.192-.012-.248.094-.086.75-.395.8-.377.022.009.109.163.191.343Zm-1.804-.33c.187.14.434.448.537.668l.108.232-.166.096c-.09.052-.202.123-.246.156-.061.046-.092.05-.121.019a6.33 6.33 0 0 0-.639-.483c-.067-.038-.102-.08-.1-.12.004-.103.29-.655.375-.727.01-.009.054.01.097.043l.155.117Zm3.118 1.255a2.75 2.75 0 0 1-.168.573c-.028.068-.048.074-.164.053-.15-.027-.67-.05-.779-.035-.06.008-.075-.007-.102-.109a2.174 2.174 0 0 0-.094-.263l-.063-.144.137-.084c.183-.11.372-.17.647-.203.26-.031.586-.023.602.014a.878.878 0 0 1-.016.198Zm-1.709.028c.147.256.256.557.21.578-.011.005-.19.043-.395.084l-.375.075-.093-.13a6.419 6.419 0 0 0-.246-.31l-.154-.181.155-.098c.143-.09.684-.307.728-.29.01.003.087.126.17.272Zm-1.706-.094c.356.283.86.834.832.91-.007.02-.05.044-.096.055-.234.057-.777.366-.89.506-.035.043-.234-.207-.356-.446a1.887 1.887 0 0 1-.18-1.185c.048-.27.055-.273.31-.11.118.077.29.198.38.27Zm3.232 1.227a1.99 1.99 0 0 1-1.057.863c-.25.082-.422.111-.42.07.003-.127-.134-.53-.264-.78l-.158-.3.23-.05a4.194 4.194 0 0 1 1.38-.074c.195.019.363.05.373.067.01.02-.027.108-.084.204Zm-2.047.169c.076.125.15.263.166.306.065.175.127.458.106.485-.077.096-.858-.117-1.187-.324-.116-.072-.213-.147-.217-.165-.01-.044.19-.204.39-.315.138-.076.56-.232.594-.22.006.002.073.107.148.233Z" clip-rule="evenodd" mask="url(#a)"/></svg>