<svg xmlns="http://www.w3.org/2000/svg" width="108" height="40" fill="none"><path fill="#DC5900" fill-rule="evenodd" d="M13.593.372c-.896.192-2.055.532-2.577.757l-.95.407 1.221.049 1.22.048-1.02.237c-2.54.588-5.247 2.599-7.63 5.667-1.453 1.87-4.002 5.825-3.85 5.973.042.042.912-.233 1.934-.612 6.146-2.274 12.473-2.44 14.373-.376.579.629.52.636-.958.124-1.36-.472-4.418-.523-6.115-.103-1.291.32-1.382.77-.156.77 2.057 0 5.216 1.67 6.04 3.195.726 1.344.633 2.449-.608 7.282-1.335 5.195-1.583 7.733-.96 9.837.591 2.002 2.258 3.783 4.819 5.15l1.997 1.067 10.918.078L42.208 40v-.659c0-.918-.72-1.568-1.453-1.312-.586.204-2.306.209-2.51.007-.062-.06.073-.623.298-1.25.586-1.633.53-4.066-.125-5.326-.606-1.169-2.05-2.43-3.66-3.2-.602-.287-.938-.528-.746-.535.533-.02 2.18.71 2.959 1.313.909.702 2.556.702 4.033-.001.626-.298 1.947-1.378 2.937-2.4 1.973-2.038 2.642-2.268 3.545-1.214.44.513.732.616 1.426.504.992-.16 1.35-.837.889-1.685-.47-.86-1.4-1.064-4.883-1.064-3.105 0-4.072-.237-3.057-.75.265-.134 1.197-.313 2.072-.397 2.007-.194 3.7-1.201 3.7-2.203 0-1.056-.617-1.982-2.513-3.77-1.322-1.247-2.063-1.73-3.016-1.966-.861-.213-1.44-.557-1.82-1.08-.37-.513-.957-.867-1.761-1.067-.664-.164-1.273-.404-1.354-.532-.08-.129-.337-.234-.57-.234-.434 0-.42.795.076 4.194.16 1.096.12 1.17-1.424 2.682-.873.856-2.945 2.477-4.605 3.603-3.61 2.45-4.748 3.55-5.79 5.595-1.1 2.157-1.452 4.122-1.3 7.237l.13 2.649-.89-.956c-1.587-1.701-1.836-3.82-.908-7.705.544-2.279.812-2.854 5.84-12.544 1.673-3.222 1.924-7.655.58-10.234-1.9-3.65-5.915-5.747-10.907-5.7-1.2.013-2.913.18-3.808.372Z" clip-rule="evenodd"/><mask id="a" width="12.277" height="13.362" x="38.411" y="25.364" fill="#000" maskUnits="userSpaceOnUse"><path fill="#fff" d="M38.411 25.364h12.277v13.362H38.411z"/><path fill-rule="evenodd" d="M46.267 27.916c.011.023-.146.082-.35.132-.203.05-.598.204-.879.344l-.51.253-.173-.152c-.154-.136-.187-.15-.311-.12-.275.063-1.073.71-1.429 1.158-.15.188-.198.218-.297.183-.08-.029-.157-.007-.237.066-.17.156-.493.671-.705 1.124-.1.214-.202.382-.225.374-.024-.009-.17.33-.326.75-.261.711-.28.79-.256 1.066.129 1.458 1.178 2.75 2.668 3.286 1.494.536 3.197.185 4.225-.873.171-.175.227-.287.468-.941.227-.616.263-.753.21-.798-.047-.04-.033-.135.055-.374.126-.343.243-1.01.229-1.308-.007-.14-.039-.194-.136-.228-.078-.029-.125-.083-.122-.14.033-.66-.163-1.814-.342-2.01-.056-.062-.138-.082-.308-.077l-.232.007-.15-.374a5.964 5.964 0 0 0-.418-.791l-.307-.487c-.046-.075-.174-.139-.142-.07Zm.306 1.262c.12.249.212.469.205.489-.008.02-.116.057-.24.083a5.75 5.75 0 0 0-.561.16c-.185.064-.363.105-.397.092-.034-.012-.123-.132-.196-.265a4.641 4.641 0 0 0-.314-.475c-.098-.128-.173-.247-.166-.265.025-.06.402-.245.813-.398l.418-.156.11.141c.061.078.209.345.329.594Zm-2.023.183c.179.216.36.466.402.555l.077.162-.444.214c-.244.118-.54.285-.658.371-.118.087-.22.155-.229.152a9.13 9.13 0 0 1-.338-.334 5.23 5.23 0 0 0-.423-.396c-.084-.057-.086-.088-.015-.193.27-.4 1.043-1.018 1.2-.962.058.02.25.214.428.43Zm3.066 1.25c.099.502.127 1.032.06 1.108-.023.026-.142.042-.263.035a3.653 3.653 0 0 0-.554.032c-.183.025-.34.042-.35.039a1.595 1.595 0 0 1-.09-.285 5.524 5.524 0 0 0-.266-.7l-.193-.421.172-.075c.256-.111 1.167-.274 1.288-.23.08.028.129.153.196.497Zm-1.89.453c.138.3.264.624.28.72.028.173.027.174-.277.34-.266.144-.313.153-.371.073a9.795 9.795 0 0 0-.23-.296l-.165-.204-.367.076-.368.075-.132-.314c-.124-.294-.125-.32-.022-.414.158-.143 1.25-.658 1.333-.628.038.014.182.271.32.572Zm-3.006-.55c.31.234.723.747.894 1.113l.18.387-.275.16a5.371 5.371 0 0 0-.412.26c-.101.076-.152.084-.201.03-.106-.115-.877-.697-1.064-.803-.112-.064-.17-.134-.167-.202.007-.17.482-1.09.624-1.21.017-.015.09.017.162.071l.26.194Zm5.196 2.092c-.039.261-.144.62-.28.955-.046.112-.08.123-.274.087-.25-.045-1.116-.084-1.297-.059-.102.015-.126-.011-.17-.18a3.616 3.616 0 0 0-.157-.439l-.105-.24.229-.14c.304-.184.62-.284 1.078-.339.432-.052.977-.038 1.003.025.009.023-.003.172-.027.33Zm-2.847.046c.244.427.426.927.35.962-.02.01-.317.073-.66.141l-.623.124-.156-.215c-.085-.118-.27-.351-.411-.517l-.256-.302.259-.163c.238-.15 1.14-.511 1.212-.485.017.006.145.21.285.455Zm-2.845-.156c.594.471 1.434 1.39 1.387 1.516-.011.032-.083.073-.16.091-.39.096-1.295.61-1.483.843-.058.073-.39-.344-.593-.743a3.144 3.144 0 0 1-.3-1.974c.08-.451.092-.455.515-.183.198.127.484.33.634.45Zm5.388 2.045a3.314 3.314 0 0 1-1.762 1.437c-.417.138-.703.185-.701.117.005-.212-.222-.885-.44-1.298l-.262-.502.384-.082a6.989 6.989 0 0 1 2.298-.124c.326.031.606.081.622.112.016.03-.044.178-.139.34Zm-3.412.28c.126.21.25.44.276.51.108.292.212.765.177.808-.128.161-1.43-.194-1.978-.539-.193-.12-.356-.245-.362-.276-.015-.072.316-.339.65-.524.23-.126.933-.387.99-.367.01.004.121.178.247.388Z" clip-rule="evenodd"/></mask><path fill="#833F0E" fill-rule="evenodd" d="M46.267 27.916c.011.023-.146.082-.35.132-.203.05-.598.204-.879.344l-.51.253-.173-.152c-.154-.136-.187-.15-.311-.12-.275.063-1.073.71-1.429 1.158-.15.188-.198.218-.297.183-.08-.029-.157-.007-.237.066-.17.156-.493.671-.705 1.124-.1.214-.202.382-.225.374-.024-.009-.17.33-.326.75-.261.711-.28.79-.256 1.066.129 1.458 1.178 2.75 2.668 3.286 1.494.536 3.197.185 4.225-.873.171-.175.227-.287.468-.941.227-.616.263-.753.21-.798-.047-.04-.033-.135.055-.374.126-.343.243-1.01.229-1.308-.007-.14-.039-.194-.136-.228-.078-.029-.125-.083-.122-.14.033-.66-.163-1.814-.342-2.01-.056-.062-.138-.082-.308-.077l-.232.007-.15-.374a5.964 5.964 0 0 0-.418-.791l-.307-.487c-.046-.075-.174-.139-.142-.07Zm.306 1.262c.12.249.212.469.205.489-.008.02-.116.057-.24.083a5.75 5.75 0 0 0-.561.16c-.185.064-.363.105-.397.092-.034-.012-.123-.132-.196-.265a4.641 4.641 0 0 0-.314-.475c-.098-.128-.173-.247-.166-.265.025-.06.402-.245.813-.398l.418-.156.11.141c.061.078.209.345.329.594Zm-2.023.183c.179.216.36.466.402.555l.077.162-.444.214c-.244.118-.54.285-.658.371-.118.087-.22.155-.229.152a9.13 9.13 0 0 1-.338-.334 5.23 5.23 0 0 0-.423-.396c-.084-.057-.086-.088-.015-.193.27-.4 1.043-1.018 1.2-.962.058.02.25.214.428.43Zm3.066 1.25c.099.502.127 1.032.06 1.108-.023.026-.142.042-.263.035a3.653 3.653 0 0 0-.554.032c-.183.025-.34.042-.35.039a1.595 1.595 0 0 1-.09-.285 5.524 5.524 0 0 0-.266-.7l-.193-.421.172-.075c.256-.111 1.167-.274 1.288-.23.08.028.129.153.196.497Zm-1.89.453c.138.3.264.624.28.72.028.173.027.174-.277.34-.266.144-.313.153-.371.073a9.795 9.795 0 0 0-.23-.296l-.165-.204-.367.076-.368.075-.132-.314c-.124-.294-.125-.32-.022-.414.158-.143 1.25-.658 1.333-.628.038.014.182.271.32.572Zm-3.006-.55c.31.234.723.747.894 1.113l.18.387-.275.16a5.371 5.371 0 0 0-.412.26c-.101.076-.152.084-.201.03-.106-.115-.877-.697-1.064-.803-.112-.064-.17-.134-.167-.202.007-.17.482-1.09.624-1.21.017-.015.09.017.162.071l.26.194Zm5.196 2.092c-.039.261-.144.62-.28.955-.046.112-.08.123-.274.087-.25-.045-1.116-.084-1.297-.059-.102.015-.126-.011-.17-.18a3.616 3.616 0 0 0-.157-.439l-.105-.24.229-.14c.304-.184.62-.284 1.078-.339.432-.052.977-.038 1.003.025.009.023-.003.172-.027.33Zm-2.847.046c.244.427.426.927.35.962-.02.01-.317.073-.66.141l-.623.124-.156-.215c-.085-.118-.27-.351-.411-.517l-.256-.302.259-.163c.238-.15 1.14-.511 1.212-.485.017.006.145.21.285.455Zm-2.845-.156c.594.471 1.434 1.39 1.387 1.516-.011.032-.083.073-.16.091-.39.096-1.295.61-1.483.843-.058.073-.39-.344-.593-.743a3.144 3.144 0 0 1-.3-1.974c.08-.451.092-.455.515-.183.198.127.484.33.634.45Zm5.388 2.045a3.314 3.314 0 0 1-1.762 1.437c-.417.138-.703.185-.701.117.005-.212-.222-.885-.44-1.298l-.262-.502.384-.082a6.989 6.989 0 0 1 2.298-.124c.326.031.606.081.622.112.016.03-.044.178-.139.34Zm-3.412.28c.126.21.25.44.276.51.108.292.212.765.177.808-.128.161-1.43-.194-1.978-.539-.193-.12-.356-.245-.362-.276-.015-.072.316-.339.65-.524.23-.126.933-.387.99-.367.01.004.121.178.247.388Z" clip-rule="evenodd"/><path stroke="#833F0E" stroke-width=".547" d="M46.267 27.916c.011.023-.146.082-.35.132-.203.05-.598.204-.879.344l-.51.253-.173-.152c-.154-.136-.187-.15-.311-.12-.275.063-1.073.71-1.429 1.158-.15.188-.198.218-.297.183-.08-.029-.157-.007-.237.066-.17.156-.493.671-.705 1.124-.1.214-.202.382-.225.374-.024-.009-.17.33-.326.75-.261.711-.28.79-.256 1.066.129 1.458 1.178 2.75 2.668 3.286 1.494.536 3.197.185 4.225-.873.171-.175.227-.287.468-.941.227-.616.263-.753.21-.798-.047-.04-.033-.135.055-.374.126-.343.243-1.01.229-1.308-.007-.14-.039-.194-.136-.228-.078-.029-.125-.083-.122-.14.033-.66-.163-1.814-.342-2.01-.056-.062-.138-.082-.308-.077l-.232.007-.15-.374a5.964 5.964 0 0 0-.418-.791l-.307-.487c-.046-.075-.174-.139-.142-.07Zm.306 1.262c.12.249.212.469.205.489-.008.02-.116.057-.24.083a5.75 5.75 0 0 0-.561.16c-.185.064-.363.105-.397.092-.034-.012-.123-.132-.196-.265a4.641 4.641 0 0 0-.314-.475c-.098-.128-.173-.247-.166-.265.025-.06.402-.245.813-.398l.418-.156.11.141c.061.078.209.345.329.594Zm-2.023.183c.179.216.36.466.402.555l.077.162-.444.214c-.244.118-.54.285-.658.371-.118.087-.22.155-.229.152a9.13 9.13 0 0 1-.338-.334 5.23 5.23 0 0 0-.423-.396c-.084-.057-.086-.088-.015-.193.27-.4 1.043-1.018 1.2-.962.058.02.25.214.428.43Zm3.066 1.25c.099.502.127 1.032.06 1.108-.023.026-.142.042-.263.035a3.653 3.653 0 0 0-.554.032c-.183.025-.34.042-.35.039a1.595 1.595 0 0 1-.09-.285 5.524 5.524 0 0 0-.266-.7l-.193-.421.172-.075c.256-.111 1.167-.274 1.288-.23.08.028.129.153.196.497Zm-1.89.453c.138.3.264.624.28.72.028.173.027.174-.277.34-.266.144-.313.153-.371.073a9.795 9.795 0 0 0-.23-.296l-.165-.204-.367.076-.368.075-.132-.314c-.124-.294-.125-.32-.022-.414.158-.143 1.25-.658 1.333-.628.038.014.182.271.32.572Zm-3.006-.55c.31.234.723.747.894 1.113l.18.387-.275.16a5.371 5.371 0 0 0-.412.26c-.101.076-.152.084-.201.03-.106-.115-.877-.697-1.064-.803-.112-.064-.17-.134-.167-.202.007-.17.482-1.09.624-1.21.017-.015.09.017.162.071l.26.194Zm5.196 2.092c-.039.261-.144.62-.28.955-.046.112-.08.123-.274.087-.25-.045-1.116-.084-1.297-.059-.102.015-.126-.011-.17-.18a3.616 3.616 0 0 0-.157-.439l-.105-.24.229-.14c.304-.184.62-.284 1.078-.339.432-.052.977-.038 1.003.025.009.023-.003.172-.027.33Zm-2.847.046c.244.427.426.927.35.962-.02.01-.317.073-.66.141l-.623.124-.156-.215c-.085-.118-.27-.351-.411-.517l-.256-.302.259-.163c.238-.15 1.14-.511 1.212-.485.017.006.145.21.285.455Zm-2.845-.156c.594.471 1.434 1.39 1.387 1.516-.011.032-.083.073-.16.091-.39.096-1.295.61-1.483.843-.058.073-.39-.344-.593-.743a3.144 3.144 0 0 1-.3-1.974c.08-.451.092-.455.515-.183.198.127.484.33.634.45Zm5.388 2.045a3.314 3.314 0 0 1-1.762 1.437c-.417.138-.703.185-.701.117.005-.212-.222-.885-.44-1.298l-.262-.502.384-.082a6.989 6.989 0 0 1 2.298-.124c.326.031.606.081.622.112.016.03-.044.178-.139.34Zm-3.412.28c.126.21.25.44.276.51.108.292.212.765.177.808-.128.161-1.43-.194-1.978-.539-.193-.12-.356-.245-.362-.276-.015-.072.316-.339.65-.524.23-.126.933-.387.99-.367.01.004.121.178.247.388Z" clip-rule="evenodd" mask="url(#a)"/><path fill="#262523" d="M60.96 33.87h2.222c-.03.644-.203 1.21-.52 1.702-.318.49-.758.874-1.32 1.149-.56.27-1.22.406-1.981.406-.618 0-1.17-.104-1.657-.311a3.375 3.375 0 0 1-1.231-.895 4.031 4.031 0 0 1-.768-1.416c-.174-.554-.26-1.178-.26-1.872v-.502c0-.694.09-1.318.272-1.872a4.126 4.126 0 0 1 .787-1.422 3.416 3.416 0 0 1 1.232-.901 3.965 3.965 0 0 1 1.593-.311c.804 0 1.483.143 2.038.431a3.18 3.18 0 0 1 1.288 1.187c.305.5.485 1.069.54 1.708h-2.222c-.008-.347-.068-.637-.178-.87a1.098 1.098 0 0 0-.52-.533c-.237-.119-.552-.178-.946-.178-.275 0-.514.05-.717.152a1.257 1.257 0 0 0-.508.483c-.135.22-.237.506-.305.857a7.104 7.104 0 0 0-.095 1.257v.514c0 .49.03.91.089 1.257.06.347.154.63.286.85.13.22.3.383.507.489.212.102.47.152.775.152.338 0 .624-.053.857-.158a1.2 1.2 0 0 0 .54-.495c.126-.225.194-.51.202-.857Zm4.727-.279 3.32-5.833h2.228V37h-2.228v-5.827L65.687 37h-2.228v-9.242h2.228v5.833Zm12.502-5.833v1.72h-4.018V37H71.95v-9.242h6.24Zm-4.843 3.18h1.987c.749 0 1.4.125 1.955.375.554.25.982.598 1.282 1.047.305.448.457.973.457 1.574 0 .453-.087.868-.26 1.244a2.819 2.819 0 0 1-.75.971c-.32.271-.708.48-1.16.629-.454.148-.961.222-1.524.222h-3.377v-9.242h2.234v7.528h1.143c.317 0 .584-.061.8-.184.22-.123.387-.286.501-.489a1.41 1.41 0 0 0 .171-.692c0-.245-.057-.463-.17-.653a1.184 1.184 0 0 0-.502-.451c-.216-.11-.483-.165-.8-.165h-1.987v-1.714Zm8.18 2.653 3.32-5.833h2.227V37h-2.228v-5.827L81.525 37h-2.227v-9.242h2.228v5.833Zm9.95.273h-2.298v-1.72h2.298c.313 0 .567-.053.762-.159a.966.966 0 0 0 .425-.438c.093-.19.14-.404.14-.64a1.76 1.76 0 0 0-.14-.705 1.136 1.136 0 0 0-.425-.52c-.195-.136-.449-.204-.762-.204h-1.46V37h-2.228v-9.242h3.688c.74 0 1.378.135 1.91.406.538.27.95.643 1.239 1.117.287.47.431 1.007.431 1.613 0 .596-.144 1.117-.431 1.561-.288.444-.7.791-1.238 1.041-.533.245-1.17.368-1.91.368Zm6.231-.273 3.32-5.833h2.228V37h-2.228v-5.827L97.707 37h-2.228v-9.242h2.228v5.833ZM61.976 14.758v1.72h-4.773v-1.72h4.773Zm1.505 0V24h-2.229v-9.242h2.228Zm-6.43 0h2.215l-.242 4.697c-.038.711-.11 1.325-.215 1.84a5.222 5.222 0 0 1-.426 1.296 2.604 2.604 0 0 1-.64.831c-.25.208-.54.356-.87.445a4.174 4.174 0 0 1-1.099.133h-.54v-1.714l.242-.025a1.31 1.31 0 0 0 .514-.159c.148-.089.275-.22.381-.393.11-.174.201-.396.273-.667.072-.27.13-.599.171-.984.047-.39.079-.844.096-1.365l.14-3.935Zm13.53 7.528V24h-4.926v-1.714h4.926Zm-4.132-7.528V24H64.22v-9.242h2.228Zm3.497 3.669v1.657h-4.29v-1.657h4.29Zm.654-3.67v1.721h-4.945v-1.72H70.6Zm5.5 6.114h2.223c-.03.643-.204 1.21-.52 1.7-.318.492-.758.875-1.321 1.15-.559.27-1.219.406-1.98.406-.619 0-1.17-.104-1.657-.311a3.375 3.375 0 0 1-1.232-.895 4.034 4.034 0 0 1-.768-1.416c-.174-.554-.26-1.178-.26-1.872v-.502c0-.694.09-1.318.273-1.872a4.126 4.126 0 0 1 .787-1.422 3.417 3.417 0 0 1 1.231-.902 3.964 3.964 0 0 1 1.593-.31c.805 0 1.484.143 2.038.431a3.18 3.18 0 0 1 1.289 1.187c.304.5.484 1.069.54 1.708h-2.222c-.009-.347-.068-.637-.178-.87a1.098 1.098 0 0 0-.52-.533c-.238-.119-.553-.178-.947-.178-.274 0-.514.05-.717.152a1.257 1.257 0 0 0-.508.483c-.135.22-.237.506-.304.857a7.114 7.114 0 0 0-.096 1.257v.514c0 .49.03.91.09 1.257.059.347.154.63.285.85.131.22.3.383.508.489.211.102.47.152.774.152.339 0 .624-.053.857-.158a1.2 1.2 0 0 0 .54-.495c.127-.225.194-.51.203-.857Z"/></svg>